<?xml version="1.0" encoding="UTF-8"?>
<svg version="1.1" viewBox="0 0 1920 4320" xmlns="http://www.w3.org/2000/svg" xmlns:xlink="http://www.w3.org/1999/xlink"><defs><linearGradient id="linearGradient2" x1="854.3" x2="854.3" y1="400" y2="1841" gradientUnits="userSpaceOnUse"><stop style="stop-color:#7195cb" offset=".09003"/><stop style="stop-color:#32588b" offset=".295"/></linearGradient></defs><polygon class="st727" transform="translate(1.188 105.3)" points="934.5 689.3 1079 676.6 1153 634.8 1204 587.4 1248 586.6 1325 546.9 1414 593.3 1492 628 1695 501.8 1792 413.6 1920 361 1920 4217 -1.2 4217 -1.2 327.2 87.3 422.6 189.3 423.7 322.3 396.5 406.8 496.5 498.2 623 598.6 659.7 707.1 588.2 776.5 619 812.9 606.5" style="fill:url(#linearGradient2)"/><path class="st734" d="m2.503 252.9c52.3 8.6 79.1 1.4 166-5.9 27.9-2.4-3 0.8 206-8.9 175.1-8.1 194.2-10.1 255-9.6 63.3 0.6 109.6 1.1 172 9.6 55.1 7.5 71 14.1 131 22.1 65.6 8.8 116 10.1 157 11.1 74.6 1.8 135.7-2.5 258-11.1 69.1-4.8 103.6-7.2 153-12.5 90.2-9.7 110.1-15.9 189-21.4 24.8-1.7 67.1-4.7 123-5.2 49-0.4 55 1.5 100 0 46.6-1.5 57.5-4.1 88-2.2 38.8 2.5 60.4 3.8 81 14.8 46.1 24.5 46.8 75 47 91.5 0.3 20.7 0.4 31.3-8 42-21.8 27.9-80.7 31.3-233 30.2-100.7-0.7-182.6-2.9-212-3.7-138.6-3.7-208.6-5.6-241-4.4-80.2 2.9-71.4 7.8-213 17.7-115.8 8.1-193.3 9.8-230 10.3-86 1.3-129 1.9-179-3.7-82-9.2-150.7-28-180-36.1-74.7-20.7-92.1-33.1-153-41.3-35.6-4.8-62.3-4.9-112-5.2-15.9-0.1-51.7 0-160 6.6-110.9 7-166.4 10.4-167 10.5 0 0-51.8 8.2-123 0-7.5-0.9-16.4-2.1-23-7.4-24.1-19.4 2.1-78.5 48-91.5 19.7-5.6 35.1-0.4 60 3.7z" style="enable-background:new;fill-opacity:.4884;fill:#fff;opacity:.1"/><path class="st734" d="m1996 591.9c-52.2-5.2-79-1.7-166 1.3-27.9 1 3-0.4-206 2.5-175.2 2.4-194.2 3.3-255 2.3-63.3-1-109.6-1.8-171.9-7.1-55.1-4.7-70.9-8.4-130.9-13.4-65.5-5.5-116-6.7-156.9-7.7-74.5-1.8-135.7-0.2-258.1 3.1-69.1 1.8-103.7 2.8-153.1 5.1-90.2 4.2-110.2 7.4-189.1 9.4-24.8 0.7-67.2 1.8-123 1.4-49-0.3-55-1.4-100-1.1-46.6 0.3-57.5 1.6-88 0.2-38.8-1.8-60.3-2.7-80.9-8.9-46-13.7-46.3-41.1-46.4-49.9-0.1-11.2-0.2-16.9 8.3-22.6 22-14.8 80.9-16 233.2-13.7 100.7 1.5 182.5 3.6 212 4.4 138.6 3.6 208.5 5.4 241 5.1 80.2-0.7 71.4-3.4 213.1-7.2 115.8-3.1 193.3-3.1 230-3 86 0.3 129 0.4 179 4 82 5.9 150.5 16.8 179.8 21.5 74.5 12 91.9 18.9 152.7 24 35.6 3 62.2 3.3 112 4 15.9 0.2 51.7 0.6 160-1.8 111-2.4 166.5-3.7 167.1-3.7 0 0 51.9-3.9 123 1.4 7.5 0.6 16.4 1.3 23 4.2 23.9 10.7-2.6 42.4-48.5 48.9-20.2 2.7-35.5-0.2-60.4-2.7z" style="enable-background:new;fill-opacity:.4884;fill:#fff;opacity:.1"/><path class="st734" d="m330.9 672.1c47.6-2.2 72 0.4 151.1 3.5 25.4 1-2.7-0.3 187.5 4.9 159.4 4.3 176.8 5.2 232.1 5.6 57.6 0.5 99.8 0.8 156.6-1.3 50.2-1.8 64.7-3.7 119.3-5.6 59.8-2.1 105.7-2 143-1.9 67.9 0.2 123.5 2.2 234.9 6.1 62.9 2.2 94.3 3.3 139.3 5.5 82.1 4 100.2 6.1 172 8.6 22.6 0.8 61.1 2.1 112 2.9 44.6 0.6 50.1 0.1 91 1 42.5 1 52.3 1.9 80.1 1.6 35.4-0.4 55-0.6 73.8-3.8 42.1-7.2 42.9-23.1 43.1-28.2 0.3-6.5 0.5-9.8-7.1-13.3-19.7-9-73.4-10.6-212-11.9-91.7-0.8-166.2-0.9-193-1-126.2-0.2-189.9-0.4-219.4-1.1-73-1.7-65-3.2-193.9-7.7-105.4-3.7-175.9-5-209.4-5.6-78.3-1.3-117.4-1.9-163-0.7-74.7 2.1-137.3 7.3-164 9.5-68.1 5.8-84 9.5-139.4 11.4-32.5 1.1-56.7 0.9-102 0.5-14.5-0.1-47-0.5-145.6-3.7-101-3.3-151.5-4.9-152-4.9 0 0-47.2-3.1-112-1.2-6.8 0.2-15 0.5-21 2.1-22 5.8 1.6 24.7 43.4 29.2 17.9 2 31.9 0.5 54.6-0.5z" style="enable-background:new;fill-opacity:.4884;fill:#fff;opacity:.1"/><path class="st734" d="m1359 726.9c-41.6 1.8-62.8 0.3-131.9-1.2-22.2-0.5 2.4 0.2-163.7-1.8-139.2-1.7-154.3-2.1-202.7-2-50.3 0.1-87.1 0.2-136.7 2-43.8 1.6-56.4 2.9-104.1 4.6-52.1 1.8-92.2 2.1-124.8 2.3-59.3 0.4-107.9-0.5-205.1-2.3-54.9-1-82.4-1.5-121.6-2.6-71.7-2-87.5-3.3-150.2-4.5-19.7-0.4-53.4-1-97.8-1.1-39-0.1-43.7 0.3-79.5 0-37.1-0.3-45.7-0.9-69.9-0.5-30.9 0.5-48 0.8-64.4 3.1-36.7 5.1-37.2 15.6-37.4 19-0.2 4.3-0.3 6.5 6.4 8.7 17.3 5.8 64.1 6.5 185.2 6.3 80-0.1 145.1-0.6 168.5-0.8 110.2-0.8 165.8-1.2 191.6-0.9 63.7 0.6 56.7 1.6 169.3 3.7 92 1.7 153.6 2 182.8 2.1 68.3 0.3 102.5 0.4 142.3-0.8 65.2-1.9 119.8-5.8 143.1-7.5 59.4-4.3 73.2-6.9 121.6-8.6 28.3-1 49.5-1 89-1.1 12.7 0 41.1 0 127.2 1.4 88.2 1.4 132.3 2.1 132.7 2.1 0 0 41.2 1.7 97.8 0 5.9-0.2 13.1-0.4 18.3-1.5 19.1-4-1.7-16.3-38.2-19-15.8-1-28 0-47.8 0.9z" style="enable-background:new;fill-opacity:.4884;fill:#fff;opacity:.1"/><path d="m-1.015 430.5 121.8 132-126.5-125.9" style="fill-opacity:.4612;fill:#e7e7e7;stroke-width:7.674"/><path d="m90 531.9 103.5 1.353 120.4-14.89 90 90 163.8 213.5-159.7-220.3-84.58-100.1-133.3 27.41-102.9-1.015" style="fill-opacity:.4612;fill:#e7e7e7;stroke-width:7.674"/><path d="m705.8 692.2-140.7 96.09 143.5-81.88 113 35.86z" style="fill-opacity:.4612;fill:#e7e7e7;stroke-width:7.674"/><path d="m776.1 724 39.25-12.86 152.3 106.2-155-97.44-33.83 6.767" style="fill-opacity:.4612;fill:#e7e7e7;stroke-width:7.674"/><path d="m1205 690.5-51.2 49.28-107.2 59.81 112-56.94 48.33-42.11 45.46-3.828 73.69-30.14 83.73 34.45 80.55 35.04 3.57-2.526-84.6-37.78-84.21-44.02-76.56 39.71z" style="fill-opacity:.4612;fill:#e7e7e7;stroke-width:7.674"/><path d="m1792 518.2-100 90.43-298.6 185.7 301.9-181.8 104.8-83.26 127.8-63.64 1.914-3.828" style="fill-opacity:.4612;fill:#e7e7e7;stroke-width:7.674"/></svg>
