<?xml version="1.0" encoding="UTF-8"?>
<svg version="1.1" viewBox="0 0 1920 4320" xmlns="http://www.w3.org/2000/svg" xmlns:xlink="http://www.w3.org/1999/xlink"><defs><radialGradient id="radialGradient52" cx="1117" cy="739" r="24.46" gradientTransform="translate(-3.589 .3589)" gradientUnits="userSpaceOnUse"><stop style="stop-color:#fff;stop-opacity:.515" offset="0"/><stop style="stop-color:#fff;stop-opacity:0" offset="1"/></radialGradient><filter id="filter51" x="-9.855" y="-6.523" width="20.79" height="14.1" style="color-interpolation-filters:sRGB"><feFlood flood-color="rgb(246,159,0)" flood-opacity=".498" in="SourceGraphic" result="flood"/><feGaussianBlur in="SourceGraphic" result="blur" stdDeviation="7.902736"/><feOffset dx="0.151976" dy="0.151976" in="blur" result="offset"/><feComposite in="offset" in2="flood" operator="in" result="comp1"/><feComposite in="SourceGraphic" in2="comp1" result="comp2"/></filter></defs><path d="m900.5 923.5 3.11-37.44 8.613 2.871-5.144 34.57" style="fill:#122246"/><path d="m946.1 943.1 1.453-32.67 6.537 0.408-2.905 33.2" style="fill:#122246;stroke-width:.8604"/><path d="m842.4 877.4 64.12 20.1v6.699l-66.03-21.05z" style="fill:#122246"/><path d="m843.3 907.1 60.29 23.92 1.914-5.742-61.25-24.88z" style="fill:#122246"/><path d="m910.1 900.1 39.42 18.95-0.3383 4.229-40.84-18.58z" style="fill:#122246"/><g transform="translate(-.3842 -941)"><path class="st870" transform="matrix(1 0 0 1 .3842 0)" d="m1846 1782 72.9-22.1v3518h-1919l0.5-3615 191.5 68 207 34 173 63 63 34 426.3 4 163.4-15.55-295.4 155.2 358.3-193.6 180.5-6.098 107.5-24.04z" style="fill:#122246"/><g transform="matrix(-6.271 .09945 .09297 6.303 8268 -4497)"><path d="m1242 918.1-5.688 14.57 3.012-2.746-4.608 11.42 4.029-1.106-6.47 12.93 5.198-1.868-7.37 14.4 6.631-1.919-8.93 12.45 8.674-5.196 2.422 4.827 4.564-3.697-0.5293 6.682-1.352 6.6 2.975-1.697 2.311 1.722 1.006-2.247 4.695 1.516-3.984-9.982-0.4414-3.05 9.61 1.747-1.489-2.904 7.164 1.831-8.824-10.93 4.365 1.515-7.373-11.7 4.632 2.225-7.613-11.69s4.374 1.754 4.1 0.8069c-0.2741-0.9475-7.655-12.89-7.655-12.89l4.109 1.047z" style="fill:#122246"/><path d="m1238 931.4-1.196 1.077 5.502-14z" style="fill-opacity:.7946;fill:#fff;opacity:.9046;stroke-width:.632"/><path d="m1240 930.2-3.23 10.77-1.435 0.2392" style="fill-opacity:.7946;fill:#fff;opacity:.9046;stroke-width:.632"/><path d="m1239 940.2-6.22 12.92 1.196-0.5981" style="fill-opacity:.7946;fill:#fff;opacity:.9046;stroke-width:.632"/><path d="m1238 951.5-7.177 13.88 1.436-0.1196" style="fill-opacity:.7946;fill:#fff;opacity:.9046;stroke-width:.632"/><path d="m1237 963.7-8.732 12.44 1.675-0.957" style="fill-opacity:.7946;fill:#fff;opacity:.9046;stroke-width:.632"/><path d="m1237 971 2.392 4.785 0.7177-3.23z" style="fill-opacity:.7946;fill:#fff;opacity:.9046;stroke-width:.632"/><path d="m1244 973.5-0.4785 5.383-1.316 7.058 1.675-1.435 0.5981-6.34z" style="fill-opacity:.7946;fill:#fff;opacity:.9046;stroke-width:.632"/></g><g transform="matrix(.6593 0 0 .7898 -23.37 261.3)"><path class="st870" d="m141.8 1263-47.5 92.8 16.3-1-53.4 73.5 40.7-18-55.2 98.5 37.6-13.1-64.2 89.3 53-19.4-65 105.6 54.2-22.5s-88.6 102.9-77.7 100.7 65.4-19.6 65.4-19.6l-15.3 24.3 56-29.2-4.7 30.3 36.3-27.9-14.9 200.3 63-0.4-9.1-196.5 5.6-5.5 34.6 24.8 2.5-29.4 33 24.1-8.6-31.6 47.4 19.6-62.2-90.9 31.4 10.4-40-98.2 29.3 11.3-37.3-81.5 22.8 7.3-22.4-40.9 19 11.2-40.1-66 27.3 15-40.9-66.7 21.4 13.2z" style="fill:#122246"/></g><g transform="matrix(-9.042 .8618 .8859 9.592 7285 -6105)"><path class="st728" d="m722.7 719.4 3.627 6.131-1.124-0.0138 3.955 4.79-2.825-1.067 4.11 6.494-2.597-0.6684 4.703 5.806-3.683-1.033 4.87 6.991-3.804-1.274s6.454 6.594 5.668 6.533-4.457-1.01-4.457-1.01l1.085 1.572-3.864-1.697 0.468 2.091-2.571-1.707 1.266 9.188-3.733 0.2104-0.2276-8.931-0.3981-0.3751-2.238 1.869-0.2988-2.115-2.153 1.857 0.4625-2.222-3.132 1.65 3.816-6.579-2.031 0.8909 2.209-6.956-1.946 0.879 2.111-5.82-1.463 0.6381 1.309-2.946-1.258 0.868 2.436-4.744-1.826 1.121 2.424-4.829-1.403 1.061z" style="fill:#122246;stroke-width:.8543"/><path d="m722.7 719.4 3.67 6.132-0.6645-0.0271" style="fill-opacity:.6434;fill:#fff;opacity:.9046;stroke-width:.5399"/><path d="m725.2 725.5 3.959 4.785-0.7636-0.2857" style="fill-opacity:.6434;fill:#fff;opacity:.9046;stroke-width:.5399"/><path d="m726.3 729.2 4.13 6.522-0.6885-0.1804" style="fill-opacity:.6434;fill:#fff;opacity:.9046;stroke-width:.5399"/><path d="m727.9 735.1 4.662 5.759-0.8839-0.2555z" style="fill-opacity:.6434;fill:#fff;opacity:.9046;stroke-width:.5399"/><path d="m728.8 739.8 4.956 7.077-1.38-0.4854" style="fill-opacity:.6434;fill:#fff;opacity:.9046;stroke-width:.5399"/><path d="m730.2 745.8 5.927 6.413-1.405-0.3066" style="fill-opacity:.6434;fill:#fff;opacity:.9046;stroke-width:.5399"/><path d="m732.2 752.6-2.325-3.321 1.891 3.193" style="fill-opacity:.6434;fill:#fff;opacity:.9046;stroke-width:.5399"/><path d="m728.7 752.9-0.6642-3.296 0.4599 3.193" style="fill-opacity:.6434;fill:#fff;opacity:.9046;stroke-width:.5399"/><path d="m726.2 751.3 0.9693 6.679-0.8062 0.7307-0.4697-6.848z" style="fill-opacity:.6434;fill:#fff;opacity:.9046;stroke-width:.5399"/></g><path class="st888" d="m1059 1866-102.5 59.47-126.9 64.4s-23.8 64.6-32 72c-8.2 7.3 50.3 62.5 50.3 62.5l111.8 47.6 110.4 34.7 200.5 62.7 145.6 43.8 84.7 80.4-107.3 98.8-269.6-91.28-73.16-62.88-261.8-90.32-103.8-63.62-49.21-90.61 9.233-96.1 86.06-79.9 123-53.84z" style="fill:#0f1e3a"/></g><g transform="translate(16.83 -58.04)"><g transform="matrix(-.6689 .05284 .05491 .6952 1599 291.7)"><path d="m641.5 923.8 85.45-0.7836 19.6-15.68-45.47-27.44-47.04-0.7836-29.79 27.44z" style="fill:#122246;stroke-width:6.553"/><path d="m653.9 879.1 44.58 4.821 47.96 23.51-45.51-27.49" style="fill-opacity:.6938;fill:#fff;stroke-width:.632"/></g><g transform="matrix(-.8344 0 0 1 1701 107.3)"><path d="m656.3 844 21.45 14.31-9.334 17.7-49.47 8.502-17.73-19.79 21.2-21.52z" style="fill:#122246;stroke-width:6.503"/><path d="m622.3 843.1 32.06 3.828 23.21 11.72-21.29-14.83" style="fill-opacity:.6938;fill:#fff;stroke-width:.632"/></g></g><g transform="matrix(.7024 0 0 .6479 264.9 308.3)"><g transform="matrix(-.6689 .05284 .05491 .6952 1599 291.7)"><path d="m641.5 923.8 85.45-0.7836 19.6-15.68-45.47-27.44-47.04-0.7836-29.79 27.44z" style="fill:#122246;stroke-width:6.553"/><path d="m653.9 879.1 44.58 4.821 47.96 23.51-45.51-27.49" style="fill-opacity:.6938;fill:#fff;stroke-width:.632"/></g><g transform="matrix(-.8344 0 0 1 1701 107.3)"><path d="m656.3 844 21.45 14.31-9.334 17.7-49.47 8.502-17.73-19.79 21.2-21.52z" style="fill:#122246;stroke-width:6.503"/><path d="m622.3 843.1 32.06 3.828 23.21 11.72-21.29-14.83" style="fill-opacity:.6938;fill:#fff;stroke-width:.632"/></g></g><path d="m1850 810.5 21.45 14.31-9.334 17.7-49.47 8.502-17.73-19.79 21.2-21.52z" style="fill:#122246;stroke-width:6.503"/><g transform="matrix(24.77 0 0 24.77 -440.2 -406.8)" style="fill:#122246"><path d="m79.5 54.62-0.4925 1.701 0.06925 0.2703-0.1251-0.3152 0.2129-1.13-0.3917 1.063 0.4361 1.041 0.03824 0.0031-0.0047 0.0083 0.0894 0.02222 0.4925-0.6041-0.2687-1.589 0.1121 1.41-0.2599 0.4651 0.1256-0.5095-0.01137-0.9963-0.1452 0.94s-0.03449 0.2538-0.06563 0.479l-0.05736-0.5571zm-0.2186 2.471c-6.03e-4 0.0043-9.76e-4 0.0058-0.0015 0.0098l-0.0036-0.0088z" style="fill:#122246;stroke-width:.2646"/></g><g transform="matrix(24.77 0 0 24.77 -1967 -653.1)" style="fill:#122246"><path d="m82.67 55.96-0.05426 0.9829-0.2145-0.5131 0.1907 0.7612 0.123-0.01137h0.03359l-5.17e-4 -0.01137h0.04496l0.06718-0.5927s-0.04843 0.2008-0.1235 0.417z" style="fill:#122246;stroke-width:.2646"/></g><g transform="translate(-2.271 4.545)"><path d="m641.5 923.8 85.45-0.7836 19.6-15.68-45.47-27.44-47.04-0.7836-29.79 27.44z" style="fill:#122246;stroke-width:6.553"/><path d="m653.9 879.1 44.58 4.821 47.96 23.51-45.51-27.49" style="fill-opacity:.7946;fill:#fff;stroke-width:.632"/></g><g transform="matrix(-10.12 -1.396 -1.248 9.369 12967 -4644)"><circle cx="1113" cy="739.3" r="24.46" style="fill:url(#radialGradient52);opacity:.5129;stroke-width:.7536"/><path d="m1119 762.9 3.383-29.27-0.5076-1.523 1.015-1.353 0.8458 0.1692 1.015 1.523-0.8458 1.353-3.722 29.44z" style="fill:#122246"/><path d="m1123 736.5-8.966-2.538-0.6766 1.184 9.473 2.538z" style="fill:#122246"/><path d="m1114 735-0.2414 1.351 0.2586 0.1007 0.186-1.39z" style="fill:#122246"/><path transform="matrix(.9686 .2737 -.2344 .9662 207.6 -280.1)" d="m1113 737.2 0.086 2.779 1.839-0.1282-0.086-2.779z" style="fill:#fff;filter:url(#filter51);stroke-width:1.43"/><path d="m1114 735.9-1.288 0.5763-0.051 0.3806 2.329 0.3633 0.056-0.4229z" style="fill:#122246;stroke-width:1.43"/><path d="m1112 739.4 2.304 0.2299-0.2656 0.6925-1.869-0.2483z" style="fill:#122246;stroke-width:1.43"/><path d="m1112 737-0.2329 2.316 1.667 0.1506 0.2331-2.316z" style="fill-opacity:.8605;fill:#fff;stroke-width:1.247"/><path d="m1122 737.5 0.43 0.1147-3.119 24.61-0.431-1e-3 -0.1715-0.4197 0.9985-4.927z" style="fill-opacity:.7946;fill:#fff;opacity:.9046;stroke-width:.6058"/><path d="m1115 735.7 6.852 1.519 0.2006 0.4013z" style="fill-opacity:.7946;fill:#fff;opacity:.9046;stroke-width:.6058"/></g><g transform="translate(-9.809 53.35)"><path d="m656.3 844 21.45 14.31-9.334 17.7-49.47 8.502-17.73-19.79 21.2-21.52z" style="fill:#122246;stroke-width:6.503"/><path d="m622.3 843.1 32.06 3.828 23.21 11.72-21.29-14.83" style="fill-opacity:.7946;fill:#fff;stroke-width:.632"/></g><g transform="translate(119.9 -12.92)"><path d="m798.2 994.2-20.24 16.41 11.2 16.66 50.85 3.438 15.94-21.49-23.57-19.26z" style="fill:#122246;stroke-width:6.553"/><path d="m777.9 1011c0.8374-0.8373 19.74-16.39 19.74-16.39l34.69-4.306 23.45 19.26-23.8-16.27-33.73 3.589z" style="fill-opacity:.6667;fill:#fff;stroke-width:.632"/></g><g transform="matrix(-.6321 0 0 .6181 977.4 270.4)"><path d="m798.2 994.2-20.24 16.41 11.2 16.66 50.85 3.438 15.94-21.49-23.57-19.26z" style="fill:#122246;stroke-width:6.553"/><path d="m777.9 1011c0.8374-0.8373 19.74-16.39 19.74-16.39l34.69-4.306 23.45 19.26-23.8-16.27-33.73 3.589z" style="fill-opacity:.7946;fill:#fff;stroke-width:.632"/></g><g transform="matrix(-1.102 0 0 1.152 1361 -57.18)"><path d="m757 862.1h38.41l9.407-14.89-24.3-13.33-18.81 3.92-11.76 6.271z" style="fill:#122246;stroke-width:6.553"/><path d="m750.1 844.3 11.8-5.769 17.81-3.152 24.69 12.13-23.85-13.7-18.78 3.891z" style="fill-opacity:.7946;fill:#fff;stroke-width:.632"/></g><g transform="matrix(-1.364 0 0 1.507 2034 -270)"><path d="m757 862.1h38.41l9.407-14.89-24.3-13.33-18.81 3.92-11.76 6.271z" style="fill:#122246;stroke-width:6.553"/><path d="m750.1 844.3 11.8-5.769 17.81-3.152 24.69 12.13-23.85-13.7-18.78 3.891z" style="fill-opacity:.6667;fill:#fff;stroke-width:.632"/></g><g transform="translate(13.53 -50.54)"><path d="m1371 898.4 21.45 14.31-9.334 17.7-49.47 8.502-17.73-19.79 21.2-21.52z" style="fill:#122246;stroke-width:6.503"/><path d="m1334 937.8-17.94-18.9 21.53-21.53 34.21 1.435-33.25 1.196-19.14 19.86z" style="fill-opacity:.6434;fill:#fff;stroke-width:.632"/><g transform="rotate(-5.489 346.6 -4441)"><path d="m798.2 994.2-20.24 16.41 11.2 16.66 50.85 3.438 15.94-21.49-23.57-19.26z" style="fill:#122246;stroke-width:6.553"/><path d="m777.9 1011c0.8374-0.8373 19.74-16.39 19.74-16.39l34.69-4.306 23.45 19.26-23.8-16.27-33.73 3.589z" style="fill-opacity:.6434;fill:#fff;stroke-width:.632"/></g></g><g transform="matrix(24.77 0 0 24.77 -453.3 -431.6)" style="fill:#122246"><path d="m79.5 54.62-0.4925 1.701 0.06925 0.2703-0.1251-0.3152 0.2129-1.13-0.3917 1.063 0.4361 1.041 0.03824 0.0031-0.0047 0.0083 0.0894 0.02222 0.4925-0.6041-0.2687-1.589 0.1121 1.41-0.2599 0.4651 0.1256-0.5095-0.01137-0.9963-0.1452 0.94s-0.03449 0.2538-0.06563 0.479l-0.05736-0.5571zm-0.2186 2.471c-6.03e-4 0.0043-9.76e-4 0.0058-0.0015 0.0098l-0.0036-0.0088z" style="fill:#122246;stroke-width:.2646"/></g><g transform="translate(-2.707)"><g transform="matrix(1.121 .1267 -.1294 1.145 -515 -281.3)"><path d="m757 862.1h38.41l9.407-14.89-24.3-13.33-18.81 3.92-11.76 6.271z" style="fill:#122246;stroke-width:6.553"/><path d="m750.1 844.3 11.8-5.769 17.81-3.152 24.69 12.13-23.85-13.7-18.78 3.891z" style="fill-opacity:.4612;fill:#fff;stroke-width:.632"/></g><g transform="matrix(-.7525 -.08507 -.06943 .6142 970.8 245.2)"><path d="m798.2 994.2-20.24 16.41 11.2 16.66 50.85 3.438 15.94-21.49-23.57-19.26z" style="fill:#122246;stroke-width:6.553"/><path d="m777.9 1011c0.8374-0.8373 19.74-16.39 19.74-16.39l34.69-4.306 23.45 19.26-23.8-16.27-33.73 3.589z" style="fill-opacity:.4612;fill:#fff;stroke-width:.632"/></g><path d="m305.8 808.8 7.775-9.211-12.92-10.41 0.4785-1.196 14 11.84" style="fill-opacity:.5155;fill:#fff;stroke-width:.632"/></g><path d="m839.9 923.8-5.383-62.92 8.254 1.316 3.947 60.65" style="fill:#19284b"/><path d="m760.8 959.8-5.742-68.9 9.57-0.957 3.828 67.94z" style="fill:#19284b"/><path d="m695.7 1005-8.613-69.86-7.656 2.871 9.57 67.94z" style="fill:#19284b"/><path d="m837.3 875.6-74.64 28.71 0.957 7.656 74.64-28.71z" style="fill:#19284b"/><path d="m841.2 903.4-79.43 29.67v8.613l80.39-31.58z" style="fill:#19284b"/><path d="m757.9 904.3-74.64 49.76 4.785 7.656 71.77-51.68z" style="fill:#19284b"/><path d="m761.7 936.9-71.77 46.89v8.613l74.64-50.72z" style="fill:#19284b"/><path d="m639.3 1066-7.656-65.07 6.699-2.871 5.742 65.07z" style="fill:#19284b"/><path d="m616.3 1155-8.163-68.91 6.503-0.8359 7.402 70.7z" style="fill:#19284b"/><path d="m666.8 1245-1.435-74.4 5.861 0.8374 2.512 78.83z" style="fill:#19284b"/><path d="m777.5 1314-1.435-75.12 10.53 2.871v74.64z" style="fill:#19284b"/><path d="m910.1 1359-2.871-84.21 6.699 3.828 3.828 84.21z" style="fill:#19284b"/><path d="m1040 1402-1.914-79.43 12.44 11.48 0.957 73.69z" style="fill:#19284b"/><path d="m1113 1469 5.742-87.08 7.656-0.9569-7.656 89.95z" style="fill:#19284b"/><path d="m684.1 954.1-48.72 60.9 1.353 7.444 49.4-61.58z" style="fill:#19284b"/><path d="m688.2 986.6-49.4 58.19v6.767l50.75-58.87z" style="fill:#19284b"/><path d="m634.7 1014-22.33 87.97 0.6767 6.767 23.68-90z" style="fill:#19284b"/><path d="m638.8 1045-22.33 90 1.353 6.767 23.01-92.03z" style="fill:#19284b"/><path d="m612.4 1096 55.49 82.55 0.6767 8.797-56.16-82.55z" style="fill:#19284b"/><path d="m617.8 1146 51.43 85.26 1.353-8.797-54.81-85.26z" style="fill:#19284b"/><path d="m669.2 1180 111 73.08 0.6767 8.12-113.7-75.79z" style="fill:#19284b"/><path d="m669.9 1232 111.7 69.7v-6.767l-113-71.05z" style="fill:#19284b"/><path d="m783.6 1255 125.6 35.55-0.0821 7.874-127.6-37.33z" style="fill:#19284b"/><path d="m783.6 1297 129.9 41.28v7.443l-131.3-43.31z" style="fill:#19284b"/><path d="m912.2 1292 134.7 50.75-1.353 6.767-132.8-47.08z" style="fill:#19284b"/><path d="m914.9 1341 131.3 43.98 0.6767 8.12-134-46.69z" style="fill:#19284b"/><path d="m1047 1347 73.76 52.78-0.6767 10.83-73.76-56.16z" style="fill:#19284b"/><path d="m1047 1388 71.05 56.84-0.6767 8.12-73.08-62.25z" style="fill:#19284b"/><path d="m947.5 910.6-0.2392 7.297 1.196 0.8374v-7.177l5.383 0.4785v-1.077" style="fill-opacity:.7597;fill:#fff;stroke-width:.632"/><path d="m947.2 922.4-0.2538 1.438 1.1 0.0846v-1.015" style="fill-opacity:.7597;fill:#fff;stroke-width:.632"/><path d="m903.6 886.2-0.8458 9.981 1.523 0.6767 0.6767-9.389 6.936 2.368 0.2538-1.015" style="fill:#fff;stroke-width:.632"/><path d="m902.3 902.9-1.692 20.47 0.9304-0.1692 1.523-20.13" style="fill:#fff;stroke-width:.632"/><path d="m843.7 877.9" style="fill:#ffa207;stroke-width:.632"/><path d="m843.7 877.8 61.72 19.38 0.4785 0.7177-62.2-19.5" style="fill:#fff;stroke-width:.632"/><path d="m845.3 900.8 55.57 22.58h-1.523l-54.3-21.99" style="fill:#fff;stroke-width:.632"/><path d="m765.5 903.4v1.196l75-29.07-2.273-0.1196z" style="fill:#fff;stroke-width:.632"/><path d="m766.8 931 74.05-27.39 1.794 0.1196-75.84 28.83" style="fill:#fff;stroke-width:.632"/><path d="m689.1 950.3 70.34-46.89 2.392-0.1196-72.49 48.45" style="fill:#fff;stroke-width:.632"/><path d="m692.8 981.7 67.94-44.38 2.153-0.1196-69.98 46.65" style="fill:#fff;stroke-width:.632"/><path d="m755 891.1 0.2392 1.675 7.656-0.3589 4.187 65.91 1.435-0.3589-4.187-67.82" style="fill:#fff;stroke-width:.632"/><path d="m834.6 860.8 0.1196 2.034 6.818 1.077 3.828 59.21h1.316l-4.187-61.13" style="fill:#fff;stroke-width:.632"/><path d="m679.8 937.7v1.675l6.34-2.392 8.373 67.82 1.196-0.1196-8.732-69.86" style="fill:#fff;stroke-width:.632"/><path d="m639.1 1010 44.5-55.03 1.914-0.4785-46.29 57.06" style="fill-opacity:.7313;fill:#fff8ed;stroke-width:.632"/><path d="m642 1041 46.05-53.35 1.914-0.3589-47.97 54.91" style="fill-opacity:.7313;fill:#fff8ed;stroke-width:.632"/><path d="m631.7 1001 0.1196 1.435 5.383-1.794 5.742 63.28 1.077-0.957-5.981-64.71" style="fill-opacity:.7313;fill:#fff8ed;stroke-width:.632"/><path d="m615.2 1090 20.57-75.96h-1.675l-19.38 73.81" style="fill-opacity:.3248;fill:#fff;stroke-width:.632"/><path d="m622.9 1112 16.67-63.95-1.914-0.1196-15.72 62.43" style="fill-opacity:.3248;fill:#fff;stroke-width:.632"/><path d="m608.2 1086v1.522l5.244-0.6767 0.7613 11.76 2.199 3.468-2.03-17" style="fill-opacity:.3248;fill:#fff;stroke-width:.632"/><path d="m621.3 1118-2.284 8.289-0.4229-2.876 2.03-6.682" style="fill-opacity:.3798;fill:#ffa207;stroke-width:.632"/><path d="m615.9 1111 3.11 29.91 1.435 2.273-2.991-30.26" style="fill-opacity:.3248;fill:#fff;stroke-width:.632"/><path d="m621.8 1156-1.196-0.2392-0.5981-6.34 1.675 2.871" style="fill-opacity:.3248;fill:#fff;stroke-width:.632"/><path class="st889" transform="translate(-.3842 -941)" d="m4225 1867c-128-12.8-193.8-4.1-407 3.3-68.4 2.4 7.4-0.9-505.1 6.1-429.5 5.9-476.2 8.1-625.2 5.7-155.1-2.5-268.7-4.5-421.5-17.4-135-11.4-173.9-20.6-320.8-32.9-160.7-13.4-284.3-16.5-384.7-18.9-182.7-4.4-332.7-0.4-632.6 7.6-169.4 4.5-254.1 6.8-375.2 12.4-221.2 10.3-270.2 18.1-463.6 23.2-60.8 1.6-164.6 4.3-301.6 3.5-120.2-0.8-134.8-3.4-245.1-2.7-114.4 0.7-141 3.9-215.8 0.5-95.2-4.3-147.9-6.7-198.3-21.8-112.7-33.6-113.6-100.6-113.9-122.4-0.4-27.5-0.6-41.4 20.2-55.5 53.8-36.3 198.3-39.2 571.6-33.7 246.8 3.7 447.5 8.8 519.6 10.7 339.7 8.8 511.2 13.1 590.7 12.5 196.6-1.6 175.1-8.4 522.4-17.6 283.9-7.5 473.9-7.7 564-7.4 210.8 0.7 316.2 1 438.7 9.8 200.9 14.4 369 41.2 440.7 52.8 182.8 29.5 225.3 46.4 374.4 58.9 87.3 7.3 152.6 8.2 274.5 9.9 39 0.5 126.7 1.4 392.3-4.4 272.1-6 408.1-9 409.5-9.1 0 0 127.2-9.5 301.5 3.4 18.3 1.3 40.2 3.2 56.3 10.4 58.7 26.3-6.3 103.9-119 119.8-48.3 6.7-86-0.6-147-6.7z" style="enable-background:new;fill-opacity:.5039;fill:#fff;opacity:.03"/><path class="st889" transform="translate(-.3842 -941)" d="m-172.2 2047c116.8-5.3 176.5 0.9 370.5 8.7 62.3 2.5-6.7-0.7 459.7 11.9 390.9 10.6 433.3 12.6 569.1 13.7 141.2 1.2 244.7 1.9 384-3.1 123.1-4.4 158.6-9.1 292.6-13.8 146.5-5.1 259.1-4.9 350.5-4.6 166.4 0.5 302.9 5.3 575.8 14.9 154.2 5.4 231.2 8.2 341.4 13.5 201.2 9.7 245.7 15 421.7 21.2 55.4 1.9 149.8 5.3 274.5 7 109.4 1.6 122.8 0.2 223.2 2.5 104.1 2.3 128.3 4.6 196.4 3.9 86.7-0.9 134.8-1.4 180.9-9.3 103.1-17.7 105.1-56.6 105.7-69.2 0.8-16 1.2-24.1-17.5-32.6-48.4-22-179.8-26.1-519.8-29.1-224.8-2-407.5-2.3-473.2-2.4-309.4-0.6-465.6-0.9-538-2.6-178.9-4.2-159.2-7.8-475.3-18.9-258.3-9.1-431.3-12.3-513.3-13.7-191.9-3.1-287.9-4.7-399.6-1.6-183.2 5-336.6 17.8-402.1 23.3-166.9 14.1-205.9 23.2-341.9 28-79.6 2.8-139 2.2-250 1.2-35.6-0.3-115.3-1.3-357.1-9.1-247.6-8-371.3-12-372.7-12.1 0 0-115.6-7.6-274.5-3.1-16.7 0.5-36.7 1.2-51.4 5.1-53.9 14.3 4 60.5 106.4 71.6 44 4.8 78.3 1.2 134-1.3z" style="enable-background:new;fill-opacity:.5039;fill:#fff;opacity:.03"/><path class="st889" transform="translate(-.3842 -941)" d="m2666 2198c-101.9 4.4-154.1 0.7-323.5-3-54.4-1.2 5.9 0.4-401.4-4.5-341.3-4.1-378.4-5.2-496.9-4.9-123.3 0.3-213.6 0.6-335.2 4.9-107.4 3.8-138.4 7.2-255.3 11.3-127.8 4.5-226.1 5.2-305.9 5.6-145.3 0.9-264.4-1.3-502.7-5.6-134.6-2.5-201.9-3.7-298.1-6.4-175.7-4.9-214.6-8.1-368.3-10.9-48.3-0.9-130.8-2.4-239.7-2.6-95.5-0.2-107.2 0.7-194.9 0-90.9-0.8-112-2.1-171.5-1.1-75.7 1.3-117.6 1.9-157.8 7.5-89.9 12.5-91.2 38.3-91.6 46.7-0.5 10.6-0.8 16 15.6 21.4 42.4 14.2 157.2 16 454 15.4 196.2-0.3 355.8-1.5 413.1-1.9 270.1-1.9 406.4-2.9 469.6-2.3 156.2 1.5 139.1 4 415 9 225.6 4.1 376.6 5 448.2 5.3 167.6 0.7 251.3 1 348.8-1.9 159.8-4.7 293.6-14.3 350.7-18.4 145.5-10.6 179.5-16.9 298.1-21.1 69.4-2.4 121.3-2.5 218.2-2.6 31 0 100.7 0 311.8 3.4 216.2 3.5 324.3 5.2 325.4 5.3 0 0 101 4.2 239.7 0 14.5-0.4 32-1.1 44.8-3.8 46.9-9.9-4.1-40-93.5-46.7-38.2-2.9-68.1-0.2-116.7 1.9z" style="enable-background:new;fill-opacity:.5039;fill:#fff;opacity:.03"/></svg>
